<svg width="21" height="20" viewBox="0 0 21 20" fill="none" xmlns="http://www.w3.org/2000/svg">
<path d="M14.7248 7.44473L16.2446 4.60761C16.3304 4.44856 16.2785 4.24652 16.1329 4.1541C15.9873 4.06168 15.7979 4.11541 15.7141 4.27447L14.1744 7.14812C12.9996 6.56995 11.6773 6.24755 10.2553 6.24755C8.83322 6.24755 7.5109 6.56995 6.33616 7.14812L4.79644 4.27447C4.71068 4.11541 4.5232 4.06168 4.37561 4.1541C4.22802 4.24652 4.17816 4.44856 4.26392 4.60761L5.7837 7.44473C3.16298 8.97506 1.38791 11.8337 1.09473 15.1802H19.4158C19.1226 11.8337 17.3476 8.97506 14.7248 7.44473ZM6.04896 12.4075C5.62414 12.4075 5.28109 12.0357 5.28109 11.5801C5.28109 11.1222 5.62613 10.7526 6.04896 10.7526C6.47378 10.7526 6.81682 11.1244 6.81682 11.5801C6.81883 12.0357 6.47378 12.4075 6.04896 12.4075ZM14.4596 12.4075C14.0348 12.4075 13.6917 12.0357 13.6917 11.5801C13.6917 11.1222 14.0368 10.7526 14.4596 10.7526C14.8844 10.7526 15.2275 11.1244 15.2275 11.5801C15.2294 12.0357 14.8844 12.4075 14.4596 12.4075Z" fill="#647491"/>
</svg>
