<svg width="20" height="20" viewBox="0 0 20 20" fill="none" xmlns="http://www.w3.org/2000/svg">
<path fill-rule="evenodd" clip-rule="evenodd" d="M10 1.6665C5.4 1.6665 1.66667 5.39984 1.66667 9.99984C1.66667 14.5998 5.4 18.3332 10 18.3332C14.6 18.3332 18.3333 14.5998 18.3333 9.99984C18.3333 5.39984 14.6 1.6665 10 1.6665ZM9.16667 16.6082C5.875 16.1998 3.33333 13.3998 3.33333 9.99984C3.33333 9.48317 3.4 8.9915 3.50833 8.50817L7.5 12.4998V13.3332C7.5 14.2498 8.25 14.9998 9.16667 14.9998L9.16667 16.6082ZM14.9167 14.4915C14.7 13.8165 14.0833 13.3332 13.3333 13.3332H12.5V10.8332C12.5 10.3748 12.125 9.99984 11.6667 9.99984L6.66667 9.99984L6.66667 8.33317H8.33333C8.79167 8.33317 9.16667 7.95817 9.16667 7.49984V5.83317L10.8333 5.83317C11.75 5.83317 12.5 5.08317 12.5 4.1665V3.82484C14.9417 4.8165 16.6667 7.20817 16.6667 9.99984C16.6667 11.7332 16 13.3082 14.9167 14.4915Z" fill="#647491"/>
</svg>
