<svg width="16" height="16" viewBox="0 0 16 16" fill="none" xmlns="http://www.w3.org/2000/svg">
<path fill-rule="evenodd" clip-rule="evenodd" d="M16 8C16 12.4183 12.4183 16 8 16C3.58172 16 0 12.4183 0 8C0 3.58172 3.58172 0 8 0C12.4183 0 16 3.58172 16 8ZM10.096 6.12809H11.4624V6.69449H9.39518V6.59849C9.39518 6.24809 9.46398 5.95849 9.60478 5.72809C9.74558 5.49769 9.98878 5.29449 10.3392 5.11689L10.5008 5.03849C10.7856 4.89449 10.8592 4.77129 10.8592 4.62249C10.8592 4.44489 10.7072 4.31689 10.4592 4.31689C10.1664 4.31689 9.94398 4.46889 9.79038 4.77929L9.39518 4.38249C9.48158 4.19689 9.62078 4.04809 9.80798 3.93289C9.99376 3.81442 10.2101 3.7527 10.4304 3.75529C10.7152 3.75529 10.9584 3.83049 11.1648 3.98249C11.3712 4.13449 11.4752 4.34569 11.4752 4.61289C11.4752 5.03849 11.2352 5.29929 10.7856 5.52969L10.5344 5.65769C10.2656 5.79369 10.1328 5.91369 10.096 6.12809ZM11.28 7.34717H9.01759L7.88639 9.30557H10.1488L11.28 11.2656L12.4112 9.30557L11.28 7.34717ZM5.46882 8.00007C5.46882 9.44007 6.64162 10.6129 8.08162 10.6129C8.70673 10.6128 9.31096 10.3879 9.78402 9.97927L10.7728 11.6945C9.99203 12.2659 9.04917 12.5731 8.08162 12.5713C5.55682 12.5713 3.51042 10.5249 3.51042 8.00007C3.51042 5.47527 5.55682 3.42887 8.08162 3.42887C8.38191 3.42883 8.68149 3.45831 8.97602 3.51687L8.08162 5.38727C6.64162 5.38727 5.46882 6.56007 5.46882 8.00007Z" fill="#F5F7F9"/>
</svg>
