<svg width="141" height="70" viewBox="0 0 141 70" fill="none" xmlns="http://www.w3.org/2000/svg">
<path d="M3 41.1366V41.0537C3 32.5379 9.51211 25.3307 18.6956 25.3307C23.2596 25.3307 26.2929 26.4151 29.0753 28.4195C29.4128 28.6717 29.6867 28.9992 29.8751 29.376C30.0635 29.7528 30.1612 30.1684 30.1604 30.5897C30.1606 30.9369 30.0924 31.2808 29.9596 31.6016C29.8268 31.9224 29.6321 32.2139 29.3867 32.4594C29.1412 32.7049 28.8497 32.8997 28.529 33.0325C28.2082 33.1654 27.8644 33.2337 27.5172 33.2336C26.8214 33.2336 26.2929 32.9272 25.8754 32.6215C23.9273 31.2018 21.7844 30.2285 18.5009 30.2285C12.8792 30.2285 8.62165 35.1543 8.62165 40.97V41.0538C8.62165 47.315 12.7401 51.9346 18.9739 51.9346C21.84 51.9346 24.4558 51.016 26.3203 49.6244V43.9198H20.3099C19.0013 43.9198 17.9162 42.9183 17.9162 41.6097C17.9162 40.3018 19.0014 39.2722 20.3093 39.2722H28.797C30.3277 39.2722 31.4965 40.4416 31.4965 41.9716V50.0974C31.4965 51.6281 30.8843 52.7133 29.6319 53.4927C27.0161 55.2462 23.3707 56.805 18.8067 56.805C9.26191 56.7763 3 49.9863 3 41.1366ZM36.2551 26.9169C36.2524 26.5727 36.3182 26.2313 36.4487 25.9127C36.5792 25.5941 36.7718 25.3047 37.0153 25.0613C37.2587 24.8178 37.5482 24.6252 37.8667 24.4947C38.1853 24.3642 38.5267 24.2984 38.8709 24.3011C40.3461 24.3011 41.5149 25.4699 41.5149 26.9169V53.8546C41.5149 55.3291 40.3455 56.4705 38.8709 56.4705C38.5267 56.4732 38.1853 56.4073 37.8667 56.2768C37.5482 56.1463 37.2587 55.9537 37.0153 55.7103C36.7718 55.4669 36.5792 55.1775 36.4487 54.8589C36.3182 54.5403 36.2524 54.1989 36.2551 53.8546V26.9169ZM45.6052 44.9213V44.8384C45.6052 38.2707 50.8094 32.8437 57.8501 32.8437C64.8908 32.8437 70.0669 38.1877 70.0669 44.7547V44.8385C70.0669 51.3499 64.8626 56.8043 57.7665 56.8043C50.7813 56.7769 45.6052 51.4335 45.6052 44.9213ZM64.8071 44.9214V44.8385C64.8071 40.803 61.8849 37.4359 57.7665 37.4359C53.5363 37.4359 50.865 40.7475 50.865 44.7268V44.8104C50.865 48.8178 53.7872 52.1575 57.8501 52.1575C62.1077 52.1849 64.8071 48.8733 64.8071 44.9214ZM83.2015 56.6934H82.9513C81.5043 56.6934 80.5576 55.7748 79.9461 54.3833L72.2927 36.8793C72.1534 36.49 71.9869 36.0444 71.9869 35.5714C71.9869 34.2635 73.1557 33.0392 74.6028 33.0392C76.0499 33.0392 76.773 33.8741 77.2186 34.9592L83.1179 50.1812L89.1289 34.8757C89.5183 33.9578 90.2141 33.0392 91.6057 33.0392C93.0527 33.0392 94.1659 34.1244 94.1659 35.5714C94.1659 36.0444 93.9988 36.5736 93.8596 36.8238L86.2067 54.3833C85.5946 55.7467 84.6486 56.6934 83.2015 56.6934ZM96.086 44.9215V44.8385C96.086 38.2709 101.29 32.8438 108.331 32.8438C115.371 32.8438 120.548 38.1879 120.548 44.755V44.8386C120.548 51.3501 115.343 56.8046 108.247 56.8046C101.234 56.7772 96.086 51.4336 96.086 44.9215ZM115.288 44.9216V44.8386C115.288 40.8031 112.366 37.436 108.247 37.436C104.017 37.436 101.346 40.7476 101.346 44.7269V44.8106C101.346 48.818 104.267 52.1577 108.358 52.1577C112.588 52.1851 115.288 48.8734 115.288 44.9216Z" fill="#808592"/>
<path d="M129.34 12.0007C123.636 12.0007 119.017 16.6202 119.017 22.3249C119.017 24.4958 119.684 26.5824 120.964 28.3359L121.242 28.7252L126.613 36.3232C126.613 36.3232 127.282 37.4077 128.701 37.4077H130.008C131.428 37.4077 132.096 36.3232 132.096 36.3232L137.466 28.7252L137.745 28.3359C139.025 26.5549 139.693 24.4957 139.693 22.3255C139.665 16.6195 135.045 12.0007 129.34 12.0007ZM133.598 25.3856L133.319 25.7749L129.368 31.3685L125.389 25.7749L125.11 25.3574C124.47 24.4396 124.108 23.4093 124.108 22.2967C124.108 21.6095 124.242 20.9289 124.505 20.2938C124.768 19.6587 125.153 19.0816 125.639 18.5957C126.125 18.1097 126.702 17.7244 127.337 17.4618C127.972 17.1991 128.653 17.0643 129.34 17.0651C130.027 17.0643 130.708 17.1991 131.343 17.4618C131.978 17.7244 132.555 18.1097 133.041 18.5957C133.527 19.0816 133.912 19.6587 134.175 20.2938C134.438 20.9289 134.573 21.6095 134.572 22.2967C134.574 23.4022 134.234 24.4812 133.598 25.3856ZM126.446 42.0552C126.446 40.4971 127.671 39.2167 129.313 39.2167C130.982 39.2167 132.179 40.469 132.179 42.0271V42.0553C132.179 43.586 130.954 44.8658 129.285 44.8658C127.643 44.8384 126.446 43.5853 126.446 42.0552Z" fill="#808592"/>
</svg>
