<svg width="64" height="64" viewBox="0 0 64 64" fill="none" xmlns="http://www.w3.org/2000/svg">
<path d="M47.3793 21.9551V14.9385C49.2821 14.0466 50.4713 12.1438 50.4713 10.0626V9.88425C50.4713 6.91114 48.0334 4.47323 45.0603 4.47323H44.8819C41.9088 4.47323 39.4709 6.91114 39.4709 9.88425V10.0626C39.4709 12.1438 40.7196 14.0466 42.6224 14.9385V21.9551C39.9466 22.3712 37.4491 23.501 35.3085 25.166L16.0429 10.1221C16.1618 9.64644 16.2807 9.11126 16.2807 8.57607C16.2807 5.24624 13.5455 2.45153 10.1562 2.39206C6.76683 2.3326 3.91266 5.06785 3.91266 8.4572C3.91266 11.8465 6.58844 14.7007 9.97775 14.7007C11.1076 14.7007 12.1779 14.4629 13.1292 13.8682L32.1571 28.6742C28.6488 33.9664 28.7678 40.8639 32.3949 46.0371L26.6271 51.8049C26.1514 51.6265 25.6757 51.5671 25.2 51.5671C22.4053 51.5671 20.2052 53.8266 20.2052 56.5619C20.2052 59.3566 22.4648 61.5567 25.2 61.5567C27.9353 61.5567 30.1948 59.2971 30.1948 56.5619C30.1948 56.0862 30.1354 55.6105 29.957 55.1348L35.6653 49.4265C42.444 54.5996 52.1362 53.2914 57.25 46.5128C62.3637 39.7341 61.115 30.0419 54.3364 24.9281C52.3741 23.3821 49.9362 22.3712 47.3793 21.9551ZM45.0009 45.0857C40.6006 45.0857 37.0924 41.5774 37.0924 37.1773C37.0924 32.7771 40.6006 29.2688 45.0009 29.2688C49.401 29.2688 52.9092 32.7771 52.9092 37.1773C52.9092 41.5774 49.401 45.0857 45.0009 45.0857Z" fill="#FF5C35"/>
</svg>
