<svg width="141" height="70" viewBox="0 0 141 70" fill="none" xmlns="http://www.w3.org/2000/svg">
<g clip-path="url(#clip0_2310_26327)">
<mask id="mask0_2310_26327" style="mask-type:luminance" maskUnits="userSpaceOnUse" x="14" y="0" width="113" height="71">
<path d="M126.25 0.0625H14.25V70.0625H126.25V0.0625Z" fill="white"/>
</mask>
<g mask="url(#mask0_2310_26327)">
<path d="M36.9694 13.4386C37.0595 13.4421 37.1628 13.4448 37.2835 13.4465C37.7761 13.4544 38.3326 13.2514 38.7028 13.0781C38.9661 12.9556 39.1376 12.848 39.1149 12.848C38.7736 12.8436 38.225 12.8393 38.0203 12.8393C37.1313 12.8393 36.6631 13.3433 36.6596 13.3905C36.6561 13.4185 36.7786 13.4308 36.9694 13.4386ZM119.675 37.208C119.17 36.0828 117.777 36.4485 117.777 36.4485C117.119 36.5868 116.367 37.3401 115.25 37.6709C112.853 38.3814 110.938 37.5563 110.938 37.5563C107.248 35.9603 95.3826 29.1668 89.3478 26.1996C89.3478 26.1996 82.3381 22.9543 72.1636 18.9266C72.1636 18.9266 52.1778 10.3963 38.8349 11.0963C38.8349 11.0963 31.7229 11.2844 29.4846 14.4221C29.4846 14.4221 29.104 14.8544 29.3201 15.3216C29.3201 15.3216 29.3621 15.4564 29.2729 15.5448C29.2729 15.5448 28.0759 16.6184 27.466 17.5721C27.2516 17.9186 27.0469 18.4751 27.4529 18.9091C27.4529 18.9091 27.6506 19.0623 27.7338 19.197C27.9079 19.4805 28.0689 19.9049 28.2841 20.156C28.5948 20.527 29.2239 21.1684 30.1103 21.0153C30.5049 20.947 30.5075 20.8359 30.5075 20.8359C30.9511 21.2769 31.6713 21.2629 31.6713 21.2629C31.5803 20.9803 31.2714 20.4281 31.2276 20.0939C31.1804 19.7255 31.2871 19.3738 31.2871 19.3738C31.4131 18.9564 31.6608 18.4305 31.9346 18.1645C32.1744 17.9265 32.7886 17.6544 33.283 17.9965C33.6785 18.2765 34.1493 19.1883 33.7564 20.4885C33.7398 20.5874 33.3066 21.5105 32.8438 21.6505C32.8438 21.6505 32.8 21.6645 32.7116 21.6645C32.3993 21.6645 31.8183 21.3381 31.8183 21.3381C31.8183 21.3381 31.8043 21.4213 31.8865 21.7573C31.9381 21.9506 32.0064 22.1615 32.0615 22.3251C32.0615 22.3251 31.9495 22.5273 31.876 22.6445C31.7789 22.7705 31.6695 23.229 31.9101 23.4031C31.9101 23.4031 32.9374 24.1023 33.9349 24.1635C34.6218 24.2055 34.8825 23.7409 34.8825 23.7409C35.3883 23.0435 35.7698 22.4503 36.3018 21.9646C37.7604 20.6303 39.8061 20.2715 39.8061 20.2715C39.9426 20.2531 42.1774 19.6319 45.9784 22.6699C44.8925 22.7574 43.6001 23.0164 42.614 23.1914C39.7983 23.6936 37.9923 26.3501 37.4664 27.429C36.0988 30.2491 38.8953 31.2213 38.8953 31.2213C38.9206 31.1959 41.5623 30.9876 42.8371 28.1806C42.8371 28.1806 43.3035 26.9381 44.5416 27.3398C45.3528 27.6031 52.5138 30.1065 54.1264 30.5291C54.1264 30.5291 58.9214 31.7786 60.7265 29.5728C63.6123 30.5204 66.3221 30.9789 73.4184 30.0628C74.6513 29.9026 75.6199 29.9394 75.6199 29.9394C77.278 30.0636 78.7909 31.1784 79.2494 31.9116C81.114 34.898 83.4818 40.8314 91.7015 40.1078L95.4176 39.7718C97.6874 39.637 99.5328 39.5486 101.408 40.5339C102.223 40.9626 102.676 41.1201 104.059 42.4405C105.954 44.2421 107.696 46.1908 110.014 45.1276C110.834 44.7488 111.759 43.2805 111.759 43.2805C111.67 42.6094 111.372 41.9645 110.634 41.4141C112.739 41.9146 117.488 42.2384 119.326 39.0254C119.803 38.2773 119.855 37.6105 119.675 37.208ZM118.925 38.7244C118.745 39.3465 117.857 40.1795 116.776 40.6581C115.64 41.1665 113.272 41.2995 111.904 41.0755C111.9 41.0755 109.252 40.8069 106.932 38.3831C106.199 37.6175 105.299 36.7495 104.468 35.8929C104.102 35.5096 103.201 34.6093 101.705 34.4098C100.147 34.1989 96.3416 34.0956 94.9101 33.6214C93.9529 33.3029 92.7996 32.6545 91.264 30.3813C90.5255 29.2928 90.0005 28.9944 88.996 28.3565C88.996 28.3565 89.766 28.969 90.2035 29.7425C90.8335 30.866 91.1511 31.6841 91.4933 32.2809C91.8371 32.882 92.2248 33.414 92.811 33.8856C93.5373 34.4693 93.9922 34.5804 94.7806 34.7108C95.5349 34.8368 98.082 34.8131 100.269 34.7808C102.419 34.7475 103.378 35.4414 104.085 36.0355C104.739 36.5859 105.86 38.1609 106.549 38.8521C107.37 39.6694 107.972 40.5041 109.595 41.3249C110.16 41.6101 111.084 42.3128 111.036 42.9909C110.306 43.7215 109.399 43.9131 107.224 43.3313C107.378 43.4826 108.517 44.6779 110.464 44.1126C109.876 44.6035 109.301 44.8135 108.699 44.7803C106.661 44.6674 104.665 42.1561 103.546 41.2286C102.695 40.5251 102.598 40.3475 101.152 39.3483C98.9579 37.8284 94.0343 38.258 94.0343 38.258L90.4205 38.4453C83.3838 38.9773 80.4289 32.7438 79.6493 31.4435C79.378 30.992 79.1348 30.628 78.9011 30.3323C78.5415 29.8536 76.6191 27.3599 74.6749 26.5409C74.6749 26.5409 76.5841 28.185 76.4721 29.2735C76.4721 29.2735 75.6811 28.9051 73.5269 29.2131C64.2563 30.5326 61.1019 28.2139 61.1019 28.2139C61.5324 26.3563 60.2348 24.4505 60.2348 24.4505C60.9496 24.678 65.5075 26.2163 69.8361 25.3378C69.8361 25.3378 62.7933 25.3754 57.8539 21.4361C57.8539 21.4361 60.9269 25.2861 60.1971 27.8088C60.1971 27.8088 59.6923 30.4959 54.3355 29.4118C53.7633 29.298 53.0904 29.1073 45.071 26.883C43.1863 26.3186 42.5353 27.2199 42.1949 27.7598C42.1809 28.5525 41.2464 29.4774 40.7756 29.7679C38.2941 29.3208 39.282 27.0186 39.282 27.0186C37.7201 29.2516 39.3564 30.2395 39.8735 30.3095C39.5638 30.46 39.2706 30.5676 39.0221 30.6604C39.0221 30.6604 36.9939 29.4529 38.127 27.4728C39.7081 24.7148 41.3164 23.8293 44.2686 23.5598C45.5593 23.4364 46.6364 23.3445 47.4554 23.4574C49.5965 23.7531 50.9379 24.9615 54.1448 25.2739C47.339 23.2693 47.3241 19.3283 47.2996 19.253C47.2988 19.2521 47.2979 19.2451 47.2979 19.2451C46.9208 20.5463 47.1281 21.6418 47.4606 22.5666C47.3661 22.5334 45.8786 21.5551 45.3116 21.2104C42.8678 19.7176 40.9384 19.4578 40.9384 19.4578C40.129 19.3554 39.751 18.3701 39.751 18.3701C39.723 18.3194 39.6933 18.2739 39.6653 18.2258C38.5383 16.3016 37.4235 16.2623 37.4235 16.2623C38.05 17.1154 38.0631 18.3308 38.0631 18.3308C38.3974 20.7239 35.6901 21.4615 35.6901 21.4615C34.0311 23.5668 34.1178 23.6105 33.7485 23.6656C33.3784 23.7164 32.5681 23.3051 32.5681 23.3051C32.436 23.1083 32.6233 22.9114 32.6233 22.9114C32.9339 22.6655 33.1885 22.4196 33.1885 22.4196C34.942 20.6259 35.1529 19.7491 34.9359 18.5871C34.4923 16.2544 32.8263 16.5265 32.8263 16.5265C32.0396 16.572 31.6879 17.2738 31.6879 17.2738C31.4105 17.7034 30.8181 19.0176 30.8181 19.0176C30.4559 19.8016 30.0866 19.9784 29.8959 20.0134C29.8119 20.0291 29.6579 20.0265 29.6071 20.0248C29.0436 20.0038 28.6149 19.484 28.6149 19.484C28.5886 19.4578 28.5633 19.4289 28.5449 19.407C28.0286 18.8531 28.4031 18.1304 28.4031 18.1304C29.097 16.5108 30.4471 16.2754 30.6309 16.2518C30.819 16.2273 31.4403 16.1371 31.4403 16.1371C33.1561 15.8493 33.9655 14.0634 33.9655 14.0634C32.8088 14.0494 32.2435 14.1255 32.2435 14.1255C31.106 14.325 30.7201 15.6646 30.7201 15.662C29.7559 15.8825 29.7813 15.0548 29.9501 14.8019C30.1015 14.5691 30.6668 13.5751 34.3654 12.7203C34.3654 12.7203 36.1889 12.1725 40.087 12.3475L39.926 12.6468C39.5813 13.2978 38.2145 14.6426 35.9553 14.1439C35.9553 14.1439 35.9754 15.1475 38.4263 15.5071C38.4263 15.5071 40.6418 15.9026 44.3999 18.9231C44.3999 18.9231 42.6035 15.3523 39.5515 14.4291C39.5515 14.4291 39.1718 14.3478 39.3581 14.1089C39.3581 14.1089 41.2411 12.3589 43.6658 12.2898C43.6658 12.2898 51.8803 11.4988 56.4399 17.7743C56.4399 17.7743 55.0653 15.1108 54.024 13.947C54.024 13.947 58.7936 15.2945 66.127 17.8443C66.127 17.8443 71.132 19.6196 74.3345 20.8823C78.657 22.585 89.4668 26.7911 96.3626 30.5501C97.5929 31.2186 110.065 37.7234 110.065 37.7234C113.519 39.2739 115.909 38.3315 115.909 38.3315C116.686 38.0358 118.096 36.9534 118.713 37.5659C119.036 37.88 119.078 38.3061 118.925 38.7244ZM31.0946 15.6305C31.0946 15.6305 31.1681 15.4153 31.1883 15.3619C31.2084 15.3111 31.414 14.7511 31.9215 14.6969C31.9215 14.6969 32.2173 14.6785 32.6714 14.6785C32.6714 14.6785 32.4491 15.3925 31.5741 15.5465C31.575 15.5474 31.2329 15.6244 31.0946 15.6305ZM36.1521 55.8849H43.6308L39.8858 51.537L36.1521 55.8849ZM44.5758 56.9813H35.2106L33.6566 58.7899H31.8261L39.191 50.2998H42.3051L49.677 58.7899H46.1333L44.5758 56.9813ZM91.4408 55.8849H98.9202L95.1753 51.537L91.4408 55.8849ZM99.8644 56.9813H90.4993L88.947 58.7899H87.1156L94.4805 50.2998H97.5964L104.967 58.7899H101.423L99.8644 56.9813ZM30.3824 50.2998V54.4394C30.3824 55.779 30.0753 56.591 29.4391 57.2429C28.3279 58.3795 26.1973 58.7899 23.182 58.7899H16.826V57.6498H22.6771C24.4735 57.6498 25.6863 57.3523 26.4178 56.6295C26.9725 56.0818 27.221 55.3196 27.221 54.1865V50.2998H30.3824ZM63.4373 57.655V54.8909H66.5829V58.789H57.4348C55.7198 58.789 54.3688 58.5886 53.3485 58.1783C51.6484 57.494 50.8714 56.2401 50.8714 54.5278C50.8714 52.9116 51.7175 51.7899 52.7955 51.1861C53.94 50.5456 55.2306 50.2989 57.3788 50.2989H66.26V51.4329H58.3631C56.6718 51.4329 55.7486 51.6875 55.0469 52.2598C54.4221 52.7673 54.0896 53.5268 54.0896 54.5435C54.0896 55.5953 54.4396 56.3723 55.1064 56.8798C55.8108 57.4161 56.7601 57.6541 58.3894 57.6541L63.4373 57.655ZM118.699 55.7904C119.886 55.7519 120.894 55.5716 121.669 55.1543C122.475 54.7194 122.859 53.9021 122.859 53.0534C122.859 51.9185 122.351 51.1923 121.427 50.7863C120.606 50.4258 119.591 50.3015 117.573 50.3015H107.773V58.7908H110.933V55.8481H115.086L119.824 58.7908H123.674L118.699 55.7904ZM117.161 51.369C118.346 51.369 118.871 51.4801 119.231 51.7496C119.574 52.006 119.696 52.398 119.696 53.007V53.1663C119.696 53.7158 119.566 54.1629 119.163 54.4429C118.766 54.7168 118.211 54.778 117.2 54.778H110.934V51.369H117.161ZM85.7209 50.2998V54.5304C85.7209 55.6259 85.601 56.4913 85.048 57.2149C84.1503 58.3935 82.5035 59.0699 77.9098 59.0699L77.8616 59.0708C73.2941 59.0708 71.6378 58.3935 70.7409 57.2166C70.1888 56.4913 70.0698 55.6268 70.0698 54.5313V50.3006H73.2311V54.4105C73.2311 55.513 73.3703 56.1605 73.7745 56.7301C74.4579 57.6944 75.6383 58.0418 77.761 58.0418H78.0296C80.2495 58.0418 81.3327 57.6926 82.0161 56.7293C82.4204 56.1596 82.5595 55.4833 82.5595 54.414V50.2998H85.7209Z" fill="#969EAB"/>
</g>
</g>
<defs>
<clipPath id="clip0_2310_26327">
<rect width="140" height="70" fill="white" transform="translate(0.25)"/>
</clipPath>
</defs>
</svg>
