<svg width="20" height="21" viewBox="0 0 20 21" fill="none" xmlns="http://www.w3.org/2000/svg">
<path fill-rule="evenodd" clip-rule="evenodd" d="M14.8611 2.64526H5.13891C3.22155 2.64526 1.66669 4.20012 1.66669 6.11749V15.8397C1.66669 17.7571 3.22155 19.3119 5.13891 19.3119H14.8611C16.7792 19.3119 18.3334 17.7571 18.3334 15.8397V6.11749C18.3334 4.20012 16.7792 2.64526 14.8611 2.64526ZM7.22224 15.8397H5.13891V8.20082H7.22224V15.8397ZM6.18058 7.32026C5.50974 7.32026 4.9653 6.77165 4.9653 6.09526C4.9653 5.41887 5.50974 4.87026 6.18058 4.87026C6.85141 4.87026 7.39585 5.41887 7.39585 6.09526C7.39585 6.77165 6.8521 7.32026 6.18058 7.32026ZM15.5556 15.8397H13.4722V11.948C13.4722 9.60915 10.6945 9.78624 10.6945 11.948V15.8397H8.61113V8.20082H10.6945V9.42651C11.6639 7.63068 15.5556 7.49804 15.5556 11.146V15.8397Z" fill="#647491"/>
</svg>
