<svg width="100" height="34" viewBox="0 0 100 34" fill="none" xmlns="http://www.w3.org/2000/svg">
<path d="M44.9168 25.3749V11.2466H40.0438V8.80029H52.7257V11.2466H47.8222V25.3852H44.9168V25.3749Z" fill="white"/>
<path d="M60.6671 25.3749V8.80029H66.3046C69.2406 8.80029 71.514 9.53625 73.0534 10.9771C74.5927 12.4179 75.3573 14.4288 75.3573 17.0098C75.3573 19.5909 74.6029 21.6329 73.084 23.1359C71.565 24.6389 69.2304 25.3852 66.0702 25.3852L60.6671 25.3749ZM63.5929 22.8664H66.4881C68.3639 22.8664 69.8115 22.3688 70.8718 21.3945C71.9218 20.4201 72.4213 18.9482 72.4213 17.1031C72.4213 15.258 71.8912 13.8172 70.8718 12.7807C69.8523 11.7441 68.2722 11.2777 66.1925 11.2777H63.5929V22.8664Z" fill="white"/>
<path d="M91.4342 25.5511C89.1608 25.6133 86.9588 24.7114 85.3379 23.1048C82.0451 19.7256 82.0451 14.294 85.3379 10.9149C86.9486 9.30821 89.1608 8.4064 91.4342 8.46859C93.7075 8.4375 95.9095 9.30821 97.5305 10.9149C100.823 14.294 100.823 19.7256 97.5305 23.1048C95.9095 24.7114 93.7075 25.5822 91.4342 25.5511ZM91.4342 10.8734C89.9152 10.8423 88.437 11.5057 87.4481 12.677C86.3981 13.8483 85.7966 15.3928 85.8374 16.9995C85.8068 18.575 86.3675 20.1195 87.4481 21.2908C89.4259 23.5401 92.8206 23.706 95.0226 21.6951C95.1551 21.5603 95.2877 21.4256 95.4202 21.2908C97.561 18.8445 97.561 15.1233 95.4202 12.6874C94.4313 11.5161 92.9531 10.8423 91.4342 10.8734Z" fill="white"/>
<path d="M54.5098 12.2522C54.5098 10.5419 55.7331 9.10109 57.3744 8.87305H57.405V21.9648C57.405 23.6751 56.1817 25.1159 54.5403 25.344H54.5098V12.2522Z" fill="white"/>
<path d="M77.6918 12.2522C77.6918 10.5419 78.9151 9.10109 80.5564 8.87305H80.587V21.9648C80.587 23.6751 79.3637 25.1159 77.7224 25.344H77.6918V12.2522Z" fill="white"/>
<path d="M21.1331 0C18.3602 0 15.6383 0.974364 13.4873 2.73651C11.3974 4.44683 9.90901 6.83092 9.28715 9.4845C3.80253 10.8528 0 15.7868 0 21.5604V33.9784H12.213C17.7485 33.9784 22.5399 30.2468 23.9774 24.867L33.3563 24.8359V12.3765C33.3053 5.55595 27.8309 0 21.1331 0ZM21.1637 24.8256H21.4593C20.0627 28.8267 16.4131 31.4803 12.2028 31.4803H2.40589V21.5189C2.40589 17.2898 5.07684 13.5063 8.96092 12.1174C8.96092 12.2314 8.96092 12.335 8.96092 12.4491C8.99151 19.28 14.4659 24.8256 21.1637 24.8256ZM12.213 9.11134H12.1824C12.0702 9.11134 11.9683 9.11134 11.8561 9.11134C13.2222 5.16206 16.9534 2.44628 21.1025 2.44628C26.4954 2.44628 30.8994 6.90348 30.93 12.3765V22.3793H24.3749C24.3953 22.0787 24.4157 21.7781 24.4157 21.4982C24.4157 14.6673 18.9413 9.11134 12.213 9.11134ZM11.377 11.6094C11.6625 11.5887 11.9377 11.568 12.213 11.568H12.2435C17.616 11.568 22.0098 16.0252 22.0404 21.4982C22.0404 21.7884 22.02 22.089 21.9996 22.3793H21.1637C15.7708 22.3793 11.3668 17.9221 11.3362 12.4491C11.3362 12.1692 11.3566 11.8893 11.377 11.6094Z" fill="white"/>
</svg>
