<svg width="21" height="20" viewBox="0 0 21 20" fill="none" xmlns="http://www.w3.org/2000/svg">
<path d="M15.6847 18.4286C14.682 19.3936 13.5756 19.2432 12.521 18.7882C11.3999 18.324 10.3749 18.2946 9.19084 18.7882C7.7163 19.4193 6.93371 19.2358 6.04566 18.4286C1.03187 13.3097 1.77191 5.51206 7.47024 5.2185C8.85227 5.29189 9.81988 5.97624 10.6339 6.03312C11.8439 5.7891 13.0021 5.09007 14.2971 5.18181C15.8531 5.30657 17.0168 5.9157 17.7938 7.01103C14.5932 8.91915 15.3517 13.1023 18.2915 14.2766C17.7032 15.8086 16.9483 17.3222 15.6829 18.4414L15.6847 18.4286ZM10.5229 5.16346C10.3731 2.88839 12.2324 1.01697 14.3711 0.833496C14.6653 3.45716 11.966 5.42032 10.5229 5.16346Z" fill="#647491"/>
</svg>
