<svg width="64" height="64" viewBox="0 0 64 64" fill="none" xmlns="http://www.w3.org/2000/svg">
<path d="M46.9589 30.2221C47.3751 30.1627 47.8508 30.1627 48.2671 30.2221C48.5644 29.4491 48.5644 28.5572 48.3265 27.7842C48.0292 26.2977 47.6129 25.4057 46.721 25.5841C45.8291 25.7625 45.8291 26.7733 46.1264 28.2599C46.2453 28.914 46.4832 29.6275 46.9589 30.2221ZM39.5856 31.4114C40.1802 31.7087 40.5965 31.8871 40.7154 31.7087C40.8343 31.5303 40.7749 31.4114 40.6559 31.1735C40.2397 30.5789 39.7046 30.1627 39.0504 29.8654C37.6234 29.2708 36.0179 29.4491 34.8286 30.4005C34.4124 30.6978 34.0556 31.1141 34.0556 31.3519C34.0556 31.4114 34.1151 31.4708 34.2935 31.5303C34.6503 31.5898 35.8395 30.9951 37.2071 30.8762C37.9801 30.8168 38.8126 30.9951 39.5856 31.4114ZM38.3369 32.0654C37.7423 32.1249 37.2666 32.3627 36.7909 32.7196C36.5531 32.9574 36.3746 33.1357 36.3746 33.3142C36.3746 33.3736 36.3746 33.3736 36.4341 33.4331C36.4936 33.4926 36.4936 33.4926 36.5531 33.4926C36.7314 33.4331 36.9693 33.3736 37.1477 33.3142C37.9801 33.0169 38.8126 32.8979 39.7046 33.0169C40.1207 33.0763 40.2992 33.0763 40.3586 32.9574C40.418 32.8384 40.418 32.8384 40.3586 32.7196C40.2397 32.4222 39.4667 32.006 38.3369 32.0654ZM44.4615 34.7412C44.9372 35.0385 45.4723 34.9196 45.8291 34.5034C46.0075 34.0277 45.7102 33.4926 45.2345 33.3142H45.175C44.6993 33.0169 44.1047 33.1357 43.8074 33.552C43.629 33.8493 43.9263 34.4439 44.4615 34.7412ZM47.9698 31.5898C47.4346 31.6492 47.0778 32.1249 47.1373 32.6601C47.1373 33.2547 47.4941 33.7899 47.9103 33.7899C48.4454 33.7304 48.8022 33.2547 48.7428 32.7196C48.7428 32.1249 48.4454 31.5898 47.9698 31.5898ZM18.2982 42.5308C18.1793 42.4118 18.0009 42.4118 17.8226 42.4713C17.7036 42.4713 17.5847 42.5308 17.4063 42.5308C17.109 42.5308 16.8117 42.4118 16.6333 42.174C16.4549 41.7578 16.4549 41.2821 16.6928 40.8658C16.7523 40.8064 16.7523 40.6874 16.8117 40.6279C17.1684 39.855 17.7631 38.4873 17.109 37.2387C16.6928 36.3467 15.8008 35.6926 14.79 35.5737C13.8386 35.4548 12.8872 35.8115 12.2332 36.4657C11.8499 36.8748 11.565 37.3659 11.4002 37.9017C11.2353 38.4375 11.1948 39.0039 11.2817 39.5576C11.3412 39.736 11.4601 39.7955 11.5196 39.7955C11.698 39.7955 11.9358 39.6766 12.1142 39.2603C12.1142 39.2009 12.1142 39.2009 12.1737 39.1414C12.2332 38.7846 12.4115 38.4873 12.5899 38.19C12.8278 37.7738 13.244 37.536 13.7197 37.417C14.1954 37.2981 14.6711 37.417 15.0873 37.6548C15.8008 38.0711 16.0387 38.963 15.7414 39.736C15.5035 40.3306 15.3846 40.9253 15.3846 41.5794C15.5035 42.8875 16.2766 43.4227 17.0496 43.4821C17.5847 43.5416 18.0604 43.3037 18.3577 42.8281C18.2982 42.7686 18.2982 42.6497 18.2982 42.5308Z" fill="#001B47"/>
<path d="M59.1488 40.1522C59.0298 39.6764 58.9109 39.1413 58.7325 38.6656C58.6136 38.2494 58.4352 37.7737 58.2568 37.3575C58.9704 36.3466 59.2677 35.0979 59.0893 33.9087C58.9109 32.9573 58.4947 32.0654 57.7812 31.4112C57.0081 30.6382 55.4621 29.8058 53.262 29.1517C53.0242 29.0923 52.1917 28.8544 52.1323 28.8544C52.0728 28.8544 52.0728 26.1192 52.0133 24.9893C51.9539 23.8596 51.7755 22.7298 51.4782 21.6001C51.062 20.0541 50.289 18.5675 49.1591 17.4377C52.0133 14.4646 53.7972 11.1942 53.7972 8.39951C53.7972 2.98846 47.1375 1.38299 38.9911 4.77232L37.2668 5.48587L34.1153 2.39385C24.7798 -5.8119 -4.35657 26.5948 4.91949 34.4438L6.9412 36.1682C6.40604 37.6548 6.16819 39.2603 6.34657 40.8063C6.64388 43.0658 7.77364 45.147 9.49807 46.6335C11.163 48.1795 13.3631 49.0715 15.6821 49.1309C19.3093 57.4556 27.5745 62.6288 37.2668 62.8666C47.6726 63.1639 56.4135 58.288 60.1001 49.4877C60.8137 47.6443 61.23 45.6821 61.3488 43.6604C61.4083 41.2225 60.0407 40.1522 59.1488 40.1522ZM16.5146 46.693C16.1578 46.7525 15.8605 46.8119 15.5632 46.7525C12.4117 46.693 9.02238 43.8388 8.66557 40.4495C8.30883 36.7628 10.2116 33.9087 13.5415 33.1951C14.0172 33.1357 14.4929 33.1357 14.9685 33.1357C16.8713 33.2546 19.6066 34.6817 20.2607 38.7845C20.7958 42.4712 19.9039 46.0984 16.5146 46.693ZM13.0063 30.9951C10.9846 31.4112 9.14126 32.5411 7.95201 34.206C7.17902 33.6114 6.4655 32.9573 5.81141 32.1842C4.02756 28.7949 7.77364 22.1352 10.39 18.3891C16.8713 9.11307 27.0393 2.09654 31.7962 3.34524C32.5693 3.58309 35.1262 6.49672 35.1262 6.49672C31.9152 8.34001 28.8826 10.4212 26.0285 12.7402C20.1418 17.3188 15.6821 23.8596 13.0063 30.9951ZM46.0077 45.3254C46.0671 45.3254 46.1266 45.2064 46.1266 45.147C46.1266 45.028 46.0671 44.9686 45.9482 44.9686C42.6778 45.3848 39.4074 45.028 36.3748 44.0172C36.91 42.3522 38.2181 42.9469 40.2399 43.1252C43.3914 43.3037 46.6023 43.0064 49.6348 42.1144C52.1917 41.4009 54.5702 40.2116 56.6514 38.6061C57.127 39.6764 57.4244 40.8063 57.6622 41.936C58.019 41.8766 58.3758 41.936 58.6731 42.1144C59.0893 42.4117 59.4461 42.9469 59.2082 44.4334C58.792 47.1092 57.5433 49.5471 55.6405 51.4499C54.4512 52.7581 52.9647 53.8879 51.3593 54.6609C50.4673 55.1365 49.5159 55.4934 48.5645 55.8501C41.1913 58.288 33.6396 55.6123 31.2016 49.9039C31.0233 49.4877 30.8449 49.012 30.7259 48.5363C29.7151 44.7902 30.5476 40.2711 33.3423 37.4764C33.5207 37.298 33.6396 37.0602 33.699 36.8223C33.699 36.5845 33.5801 36.3466 33.4612 36.1682C32.5098 34.8006 29.18 32.3627 29.834 27.7841C30.3097 24.4542 33.2234 22.1352 35.8992 22.2541C36.137 22.2541 36.3748 22.2541 36.6127 22.3136C37.8019 22.373 38.8128 22.5514 39.7641 22.5514C41.4886 22.6704 43.2129 22.1352 44.5211 20.946C45.0563 20.4702 45.6509 20.1135 46.3645 19.9351C46.6023 19.8756 46.8402 19.8756 47.078 19.8756C47.4942 19.8756 47.9105 19.9946 48.2672 20.2324C49.6348 21.1244 49.8132 23.3839 49.9321 24.9893C49.9916 25.9408 50.1105 28.1408 50.1105 28.7949C50.17 30.2815 50.5863 30.4599 51.3593 30.7572L52.7863 31.1734C54.6297 31.7086 55.7 32.1842 56.354 32.8978C56.7108 33.2546 56.9487 33.7303 57.0081 34.206C57.246 35.752 55.8189 37.7142 52.0133 39.4386C48.0294 41.163 43.6887 41.8766 39.4074 41.4603C39.1695 41.4603 38.2181 41.3414 38.2181 41.3414C35.4235 40.9846 33.8774 44.5524 35.5424 46.9903C36.6127 48.5958 39.5263 49.6066 42.4399 49.6066C49.1591 49.6066 54.3324 46.7524 56.2351 44.255C56.2946 44.1955 56.354 44.0767 56.4135 44.0172C56.5324 43.8983 56.4135 43.7794 56.2946 43.8982C54.7486 44.9686 47.7915 49.2498 40.2993 47.9417C39.7047 47.8228 39.1101 47.6443 38.575 47.466C37.9208 47.2282 36.5532 46.574 36.3748 45.147C42.2616 47.0497 46.0077 45.3848 46.0077 45.3254ZM25.0176 18.3296C27.1582 15.7728 29.7746 13.6322 32.6882 12.0267C32.7477 11.9672 32.8666 12.0861 32.8071 12.1456C32.5098 12.6807 32.272 13.2754 32.0936 13.87C32.0936 13.9889 32.1531 14.0484 32.272 13.9889C34.2937 12.6807 36.6127 11.8483 39.0506 11.6104C39.1696 11.6104 39.229 11.7294 39.1101 11.7888C38.6938 12.0861 38.3371 12.4429 38.0398 12.8592C37.9803 12.9186 38.0398 12.978 38.0398 13.0375H38.0992C40.0615 13.097 42.0238 13.5727 43.7481 14.5241C43.8076 14.5241 43.8671 14.643 43.8076 14.7025C43.8076 14.7619 43.7481 14.7619 43.6887 14.7619C37.2668 13.3349 30.5476 14.643 25.1365 18.4486C25.0771 18.6269 24.8987 18.4486 25.0176 18.3296Z" fill="#001B47"/>
</svg>
