<svg width="141" height="70" viewBox="0 0 141 70" fill="none" xmlns="http://www.w3.org/2000/svg">
<path d="M38.438 26.5681H44.3426C50.2472 26.5681 51.1097 29.7526 51.1097 32.141C51.1097 34.5294 50.2472 37.6475 44.5416 37.6475H43.0821V42.756H38.438V26.5681ZM44.4753 33.9986C46.0012 33.9986 46.3993 33.0698 46.3993 32.141C46.3993 31.1458 46.0012 30.2834 44.4753 30.2834H43.0821V33.9986H44.4753Z" fill="#808592"/>
<path d="M52.3705 30.3495H54.8916L55.6214 31.8754C56.3512 30.6813 57.5454 29.9515 59.9337 30.1505V34.0648C57.2136 33.7994 56.8819 34.9936 56.8819 36.5859V42.7558H52.3042L52.3705 30.3495Z" fill="#808592"/>
<path d="M60.3982 39.3724C60.3982 36.586 62.6539 35.5908 68.4258 35.1928C68.4258 33.4678 68.1604 32.9371 66.8335 32.9371C65.6394 32.9371 65.3076 33.6005 65.3076 34.7284H60.7963C60.7963 32.4063 62.0568 30.1506 66.7009 30.1506C72.1411 30.1506 73.0035 32.8044 73.0035 35.7899V42.756H70.4825L69.6863 41.031C68.6912 42.3579 67.2979 42.955 65.2413 42.955C62.5875 42.955 60.3982 41.8935 60.3982 39.3724ZM66.5682 40.1022C67.8287 40.1022 68.4258 39.2397 68.4258 37.3821L66.5682 37.5811C65.4403 37.7138 65.0423 38.3773 65.0423 38.908C65.0423 39.6378 65.5067 40.1022 66.5682 40.1022Z" fill="#808592"/>
<path d="M74.7942 26.5681H79.3056V34.9274L81.6276 30.3497H87.3995L83.0872 36.2543L87.6649 42.756H81.9593L79.3056 37.8466V42.756H74.7942V26.5681Z" fill="#808592"/>
<path d="M104.716 26.5681H109.227V34.9274L111.549 30.3497H117.321L113.009 36.2543L117.587 42.756H111.881L109.227 37.8466V42.756H104.716V26.5681Z" fill="#808592"/>
<path d="M89.1912 39.0407V33.9322H87.1345V32.0083L89.1912 29.3545L90.4517 27.5632H93.6362V30.3497H96.5553V33.8659H93.7689V38.1119C93.7689 39.0407 94.167 39.3724 95.3612 39.3724C95.6929 39.3724 96.0909 39.3724 96.6217 39.3061V42.8887C95.9583 42.955 95.3612 42.955 94.8304 42.955C90.5181 42.955 89.1912 41.7608 89.1912 39.0407Z" fill="#808592"/>
<path d="M98.0813 30.3496H102.659V42.7559H98.0813V30.3496Z" fill="#808592"/>
<path d="M98.0813 26.5681H102.659V29.5536H98.0813V26.5681Z" fill="#808592"/>
<path d="M116.923 36.5196C116.923 33.4678 117.918 30.0842 123.424 30.0842C128.599 30.0842 129.462 33.7995 129.462 35.9888C129.462 36.3205 129.462 37.183 129.395 37.5147H121.169C121.169 39.2397 121.898 40.0358 123.225 40.0358C124.486 40.0358 124.95 39.4387 125.017 38.5762H129.196C129.064 41.031 127.405 42.9549 123.358 42.9549C117.851 42.9549 116.923 39.5714 116.923 36.5196ZM125.083 35.1927C125.017 33.6005 124.486 33.0034 123.159 33.0034C121.965 33.0034 121.235 33.5341 121.169 35.1927H125.083Z" fill="#808592"/>
<path d="M131.12 30.3495H133.641L134.371 31.8754C135.101 30.6813 136.295 29.9515 138.684 30.1505V34.0648C135.963 33.7994 135.632 34.9936 135.632 36.5859V42.7558H131.12V30.3495Z" fill="#808592"/>
<path fill-rule="evenodd" clip-rule="evenodd" d="M31.3393 34.7947C31.3393 42.9655 24.7155 49.5893 16.5447 49.5893C8.3738 49.5893 1.75 42.9655 1.75 34.7947C1.75 26.6238 8.3738 20 16.5447 20C24.7155 20 31.3393 26.6238 31.3393 34.7947ZM9.18064 25.6392H20.2601C23.909 25.7055 26.8281 28.691 26.8281 32.3399C26.8281 34.1312 26.0983 35.7898 24.9041 37.0503C23.7099 38.3109 22.184 39.0406 20.4591 39.107V43.8837H9.18064V25.6392ZM18.8005 37.4484V34.0648L16.5448 32.738L14.2891 34.0648V37.4484H18.8005ZM20.4591 37.4484C23.1128 37.2493 25.1695 35.06 25.1695 32.4063C25.1695 29.6198 22.9138 27.2978 20.061 27.2978H10.8392V42.2915H18.8005V39.1733H12.6305V33.2024L16.5448 30.8803L20.4591 33.2024V37.4484Z" fill="#808592"/>
</svg>
