<svg width="152" height="50" viewBox="0 0 152 50" fill="none" xmlns="http://www.w3.org/2000/svg">
<path d="M116.279 27.7477H113.254V11.2283C113.228 11.2258 113.202 11.2233 113.176 11.22C113.079 11.6148 112.98 12.0106 112.884 12.4054C111.664 17.4294 110.443 22.4533 109.23 27.4797C109.174 27.7087 109.08 27.7742 108.853 27.7701C108.146 27.7568 107.438 27.7568 106.73 27.7701C106.522 27.7742 106.444 27.7045 106.396 27.5063C105.299 22.9569 104.194 18.4083 103.09 13.8597C102.894 13.0492 102.697 12.2395 102.499 11.429C102.483 11.3643 102.459 11.3013 102.367 11.2366C102.367 11.3809 102.367 11.5252 102.367 11.6696C102.367 16.8926 102.367 22.1157 102.368 27.3387C102.368 27.6224 102.225 27.7643 101.939 27.7643C101.191 27.7643 100.445 27.7643 99.6972 27.7643C99.591 27.7643 99.4856 27.7643 99.3521 27.7643C99.3454 27.6199 99.3355 27.5046 99.3355 27.3901C99.3355 20.9692 99.3363 14.5482 99.3289 8.12812C99.3289 7.84026 99.3861 7.74403 99.6972 7.74817C101.132 7.76643 102.568 7.76145 104.003 7.75149C104.237 7.74983 104.343 7.80293 104.401 8.05097C105.271 11.7368 106.155 15.4201 107.035 19.1035C107.29 20.172 107.545 21.2413 107.801 22.3098C107.82 22.3911 107.847 22.4699 107.932 22.5495C108.087 21.8933 108.242 21.2363 108.396 20.5801C109.381 16.3866 110.367 12.1939 111.345 7.99871C111.391 7.8021 111.473 7.75149 111.661 7.75232C113.077 7.75813 114.493 7.76394 115.908 7.74817C116.202 7.74486 116.286 7.81952 116.285 8.12232C116.276 14.2778 116.278 20.4341 116.278 26.5896C116.278 26.9695 116.278 27.3503 116.278 27.7468L116.279 27.7477Z" fill="#808592"/>
<path d="M21.8346 7.75632C21.9822 7.75632 22.0984 7.75632 22.2145 7.75632C24.4262 7.75632 26.6378 7.75217 28.8495 7.75798C29.7413 7.75964 30.6148 7.88241 31.4336 8.2607C32.897 8.93681 33.6304 10.1455 33.861 11.6844C34.0543 12.9735 33.9987 14.2519 33.4885 15.4764C32.9891 16.6751 32.1446 17.4865 30.8463 17.7735C30.8173 17.7801 30.789 17.7884 30.7617 17.8C30.7442 17.8075 30.7293 17.8208 30.663 17.8656C30.7874 17.8913 30.872 17.912 30.9583 17.9253C32.3254 18.1261 33.1641 18.9075 33.5175 20.2332C33.7681 21.1739 33.7697 22.1354 33.7855 23.0977C33.7996 23.9315 33.8336 24.7652 33.8477 25.5997C33.8618 26.4202 34.0045 27.1842 34.7868 27.7475C34.6134 27.7566 34.5213 27.7649 34.4284 27.7649C33.4553 27.7658 32.4822 27.7542 31.5091 27.7732C31.2329 27.7782 31.0661 27.6778 31.0081 27.4339C30.8786 26.893 30.7102 26.3497 30.6737 25.8005C30.5899 24.5478 30.5817 23.2902 30.5302 22.035C30.5169 21.7032 30.4796 21.3681 30.4157 21.0429C30.1776 19.8425 29.5397 19.2178 28.3227 19.1282C27.2857 19.0519 26.2405 19.0892 25.1993 19.0718C25.0168 19.0685 24.9961 19.168 24.9961 19.3148C24.9994 20.0117 24.9978 20.7094 24.9978 21.4062C24.9978 23.3997 24.9978 25.3923 24.9978 27.3858C24.9978 27.5011 24.9978 27.6156 24.9978 27.7483H21.8337V7.75632H21.8346ZM24.9986 13.4033C24.9986 14.4037 25.0027 15.4042 24.9953 16.4047C24.9936 16.603 25.0467 16.6826 25.2591 16.6801C26.0737 16.6701 26.8892 16.6901 27.7038 16.6735C29.334 16.6411 30.3991 15.7742 30.6895 14.2494C30.8289 13.5161 30.794 12.7819 30.5991 12.0627C30.3743 11.2331 29.8773 10.6209 29.037 10.367C28.6479 10.2492 28.2306 10.1853 27.8233 10.1712C26.9796 10.1422 26.1343 10.1712 25.2906 10.1579C25.0533 10.1546 24.9911 10.2326 24.9936 10.4607C25.0044 11.4413 24.9986 12.4219 24.9986 13.4033Z" fill="#808592"/>
<path d="M36.8118 17.7546C36.835 15.8756 36.9428 14.0073 37.4389 12.1823C37.6795 11.2963 38.0171 10.4509 38.5414 9.69022C39.3884 8.45995 40.5615 7.73739 42.029 7.49266C43.3895 7.26536 44.7376 7.30767 46.0334 7.81703C47.6593 8.4558 48.5984 9.73667 49.1791 11.3195C49.8121 13.0459 49.9938 14.8494 50.0469 16.6703C50.1041 18.6455 50.0527 20.6149 49.6462 22.5587C49.4056 23.7101 49.0423 24.8151 48.3786 25.8006C47.505 27.0981 46.2723 27.8256 44.7367 28.0596C43.7271 28.2131 42.7167 28.2023 41.7196 27.9783C39.9268 27.5751 38.7198 26.4651 37.9699 24.8209C37.2871 23.3235 37.0399 21.7266 36.9138 20.1064C36.8532 19.3241 36.8441 18.5385 36.8126 17.7546H36.8118ZM39.9957 17.6558C40.0339 18.5476 40.0529 19.4411 40.1151 20.3321C40.1948 21.4694 40.3532 22.596 40.7398 23.6786C41.3081 25.2722 42.3251 25.9168 43.9744 25.7152C44.4862 25.653 44.9317 25.4456 45.3033 25.0773C45.9297 24.4551 46.2333 23.667 46.405 22.8357C47.0438 19.7547 47.0065 16.6537 46.5925 13.5511C46.4714 12.6435 46.2126 11.7725 45.7414 10.9678C44.7948 9.34926 42.2165 9.47287 41.3446 10.7015C40.9381 11.2739 40.6751 11.8986 40.5059 12.568C40.0836 14.238 40.0297 15.9444 39.9957 17.6558Z" fill="#808592"/>
<path d="M81.1164 17.7544C81.0766 19.7537 80.9596 21.7389 80.378 23.6677C80.0213 24.8498 79.4838 25.9324 78.5546 26.7778C77.4812 27.7542 76.1737 28.1092 74.7601 28.1515C73.6178 28.1856 72.5029 28.0503 71.4659 27.526C70.1386 26.8549 69.3347 25.7358 68.8029 24.3902C68.2927 23.1002 68.0613 21.7464 67.951 20.3734C67.7867 18.3244 67.79 16.2753 68.0522 14.2329C68.2231 12.9031 68.5176 11.6039 69.1356 10.3994C69.9602 8.79166 71.2485 7.80031 73.0437 7.49171C74.1421 7.30256 75.2363 7.31915 76.3197 7.58213C78.0162 7.9936 79.1644 9.06293 79.8994 10.6101C80.5622 12.0054 80.8285 13.5012 80.9646 15.0218C81.0459 15.9294 81.0683 16.8427 81.1164 17.7536V17.7544ZM77.9656 17.8191C77.8661 16.5092 77.7947 15.196 77.6587 13.8894C77.5558 12.9006 77.2987 11.9482 76.8175 11.0581C75.8709 9.30683 72.9965 9.35494 72.1528 11.0324C71.8691 11.5965 71.6053 12.1963 71.4775 12.8093C70.8678 15.7327 70.9358 18.6819 71.2776 21.6294C71.3979 22.6647 71.6592 23.6644 72.1992 24.586C73.1134 26.1473 75.7449 26.1083 76.6416 24.7171C77.0763 24.0426 77.331 23.3101 77.4961 22.5386C77.8288 20.9848 77.876 19.4045 77.9656 17.8191Z" fill="#808592"/>
<path d="M95.824 13.0632H92.6193C92.5919 12.66 92.5886 12.2685 92.5355 11.8835C92.3812 10.747 91.7267 10.0485 90.5968 9.85107C90.1953 9.78055 89.7713 9.76562 89.3657 9.8071C88.0475 9.94149 87.2179 10.8632 87.1084 12.2602C86.9748 13.9641 87.6319 15.0152 89.3632 15.7419C90.44 16.194 91.5616 16.5391 92.635 16.9987C93.3062 17.2858 93.9566 17.6499 94.5588 18.0639C95.3528 18.6098 95.8621 19.3995 96.0969 20.3345C96.4718 21.8285 96.4163 23.3168 95.8953 24.7694C95.3652 26.2477 94.2967 27.1967 92.8292 27.692C91.2214 28.2345 89.5639 28.3117 87.9098 27.9857C85.6475 27.5402 84.2696 26.1423 83.8116 23.8892C83.6623 23.155 83.6449 22.3943 83.5636 21.6112H86.7873C86.8122 22.0484 86.8147 22.4889 86.867 22.9236C86.9981 24.0203 87.3996 24.9594 88.4813 25.4513C89.0952 25.73 89.7506 25.8039 90.4134 25.74C92.3007 25.56 93.3593 24.1339 93.1013 22.1811C92.903 20.6779 91.973 19.8575 90.6167 19.3821C89.413 18.9598 88.1976 18.5558 87.0304 18.0465C85.8035 17.5106 84.7681 16.6876 84.3077 15.3744C83.6507 13.502 83.7021 11.6446 84.72 9.89255C85.3563 8.79833 86.356 8.12388 87.5464 7.75472C89.2421 7.22877 90.961 7.21384 92.6608 7.71822C94.461 8.25247 95.444 9.51592 95.6995 11.3501C95.7775 11.9093 95.7833 12.4783 95.824 13.0649V13.0632Z" fill="#808592"/>
<path d="M131.071 25.083V27.7476C130.956 27.7543 130.852 27.7659 130.749 27.7659C127.289 27.7659 123.83 27.7634 120.37 27.7725C120.096 27.7725 120.025 27.6946 120.025 27.4266C120.032 20.9866 120.033 14.5465 120.025 8.10652C120.025 7.81617 120.115 7.75146 120.391 7.75146C123.763 7.76059 127.134 7.75976 130.505 7.75146C130.764 7.75146 130.868 7.80539 130.859 8.0891C130.837 8.76604 130.852 9.44381 130.85 10.1207C130.85 10.217 130.841 10.3124 130.835 10.4434H123.233C123.227 10.5737 123.217 10.6683 123.217 10.7637C123.217 12.4029 123.222 14.0422 123.211 15.6822C123.209 15.9386 123.277 16.0166 123.539 16.0157C125.702 16.0058 127.864 16.0099 130.027 16.0099C130.141 16.0099 130.256 16.0099 130.387 16.0099V18.6629C130.252 18.6687 130.128 18.6787 130.003 18.6787C127.851 18.6795 125.699 18.6837 123.546 18.6737C123.291 18.6729 123.209 18.7359 123.211 19.0006C123.222 20.9244 123.221 22.849 123.211 24.7728C123.21 25.0183 123.282 25.0888 123.527 25.088C125.915 25.0797 128.304 25.083 130.692 25.083C130.808 25.083 130.923 25.083 131.072 25.083H131.071Z" fill="#808592"/>
<path d="M65.5849 13.9922H62.3686C62.3354 13.5219 62.323 13.0623 62.2657 12.6085C62.1595 11.7665 61.9223 10.9709 61.2702 10.3719C61.1068 10.2218 60.911 10.0932 60.7094 9.99863C59.1946 9.29183 57.4392 9.95964 56.7988 11.491C56.3376 12.5936 56.2081 13.7666 56.1326 14.9437C56.0173 16.7473 56.0149 18.5524 56.1293 20.3559C56.209 21.6119 56.3417 22.8613 56.8361 24.0384C57.5156 25.6561 59.4078 26.2841 60.8919 25.3741C61.6668 24.8987 62.0359 24.1289 62.1969 23.2852C62.3445 22.5095 62.386 21.7115 62.4474 20.9217C62.4648 20.6927 62.4988 20.594 62.7568 20.5982C63.6213 20.6131 64.4865 20.6031 65.3518 20.6048C65.438 20.6048 65.5243 20.6156 65.6288 20.623C65.6828 21.9379 65.5467 23.2064 65.1079 24.4325C64.708 25.5516 64.0676 26.4973 63.0721 27.1767C62.3362 27.6795 61.515 27.959 60.6356 28.076C59.6136 28.212 58.5948 28.1863 57.5869 27.9731C55.6946 27.5733 54.4677 26.4052 53.7775 24.6324C53.2772 23.3474 53.0682 22.0018 52.9612 20.638C52.8127 18.7366 52.8127 16.8335 52.9587 14.9321C53.0607 13.6073 53.2615 12.3007 53.7211 11.0447C54.4876 8.94921 55.9659 7.73471 58.1892 7.45348C59.2884 7.31411 60.3859 7.32655 61.4718 7.57626C63.6594 8.07815 65.0075 9.48512 65.37 11.7026C65.4911 12.4442 65.5135 13.2016 65.5849 13.9931V13.9922Z" fill="#808592"/>
<path d="M7.36423 27.7477V7.75651C7.47623 7.75651 7.57992 7.75651 7.68279 7.75651C9.70779 7.75651 11.7328 7.75153 13.7578 7.759C14.5484 7.76149 15.3265 7.87099 16.0715 8.14973C17.4287 8.65743 18.3387 9.61394 18.805 10.9711C19.3425 12.5365 19.3906 14.1368 18.9236 15.7238C18.2956 17.8541 16.809 19.0346 14.6446 19.3914C14.2008 19.4644 13.7454 19.4851 13.2941 19.4934C12.4985 19.5092 11.7013 19.5141 10.9057 19.4901C10.5921 19.481 10.5332 19.5888 10.5349 19.875C10.5465 21.8585 10.5407 23.8412 10.5407 25.8247C10.5407 26.3748 10.5299 26.9248 10.5457 27.4739C10.5523 27.7104 10.4752 27.7743 10.2437 27.7701C9.37845 27.7568 8.51403 27.7651 7.64878 27.7643C7.5625 27.7643 7.47623 27.7543 7.3634 27.7477H7.36423ZM10.5424 13.6208C10.5424 14.6901 10.5465 15.7595 10.5382 16.8288C10.5365 17.0329 10.6004 17.1017 10.807 17.0992C11.5337 17.0893 12.2612 17.115 12.9871 17.0901C13.9494 17.0561 14.8022 16.7574 15.3921 15.9386C16.1993 14.8195 16.2573 12.5838 15.514 11.4199C14.9847 10.5904 14.1635 10.2701 13.2393 10.2046C12.4471 10.1482 11.6498 10.1814 10.8543 10.159C10.612 10.1523 10.5324 10.2253 10.5357 10.4726C10.5482 11.522 10.5407 12.5714 10.5407 13.6216L10.5424 13.6208Z" fill="#808592"/>
<path d="M145.075 10.4403H140.439V27.7387H137.25V10.4527H132.489C132.477 10.3457 132.461 10.2711 132.461 10.1964C132.46 9.47963 132.47 8.76288 132.455 8.04612C132.45 7.80637 132.531 7.75162 132.758 7.75245C135.009 7.75992 137.261 7.7566 139.511 7.7566C141.232 7.7566 142.951 7.7566 144.672 7.7566C144.798 7.7566 144.924 7.7566 145.074 7.7566V10.4403H145.075Z" fill="#808592"/>
<path d="M79.3667 42.5688C78.7736 42.5688 78.2286 42.5755 77.6835 42.5606C77.6147 42.5589 77.5334 42.4494 77.4853 42.3731C77.0613 41.7011 76.6399 41.0267 76.2268 40.3481C76.1264 40.183 76.0177 40.1025 75.8078 40.1042C73.7936 40.1133 71.7794 40.1125 69.7652 40.1042C69.5711 40.1042 69.4624 40.1705 69.3653 40.3306C68.953 41.0101 68.5258 41.6804 68.1135 42.3606C68.0231 42.5099 67.926 42.5829 67.7418 42.578C67.2532 42.5647 66.7638 42.5738 66.2021 42.5738C66.4568 42.1798 66.6742 41.8363 66.8973 41.497C68.4445 39.1435 69.9966 36.7933 71.5363 34.4348C71.684 34.2083 71.8441 34.1254 72.1079 34.1362C72.5882 34.1561 73.0711 34.1519 73.5522 34.137C73.7629 34.1304 73.8882 34.1992 74.0043 34.3776C75.2371 36.2682 76.4798 38.1522 77.7192 40.0386C78.2095 40.7853 78.7014 41.5302 79.1909 42.2768C79.2431 42.3565 79.2888 42.4403 79.3659 42.5697L79.3667 42.5688ZM75.71 39.4737C74.7252 37.8593 73.7729 36.2972 72.789 34.6837C71.7968 36.313 70.8478 37.8726 69.873 39.4737H75.71Z" fill="#808592"/>
<path d="M107.766 34.2315C107.26 34.7218 106.75 35.2079 106.249 35.7024C105.173 36.7651 104.106 37.836 103.025 38.8929C102.812 39.1003 102.723 39.3127 102.729 39.613C102.75 40.4957 102.737 41.38 102.736 42.2635C102.736 42.3506 102.728 42.4369 102.722 42.5472H101.078C101.073 42.441 101.064 42.3373 101.064 42.2328C101.062 41.3294 101.053 40.4268 101.068 39.5234C101.073 39.272 100.986 39.1078 100.813 38.9369C99.2766 37.4188 97.7477 35.8915 96.218 34.3667C96.1632 34.312 96.1126 34.2531 96.0122 34.1436C96.6211 34.1436 97.1728 34.1378 97.7245 34.1502C97.7958 34.1519 97.8738 34.2373 97.9335 34.2979C99.226 35.6153 100.515 36.9351 101.806 38.2533C101.826 38.2741 101.852 38.2882 101.896 38.3197C102.178 38.0434 102.468 37.7705 102.746 37.4876C103.799 36.4166 104.847 35.3407 105.902 34.2713C105.964 34.2083 106.064 34.1486 106.147 34.1469C106.666 34.1353 107.185 34.1411 107.703 34.1411C107.724 34.171 107.744 34.2008 107.765 34.2307L107.766 34.2315Z" fill="#808592"/>
<path d="M58.7317 42.5698C58.1842 42.5698 57.6939 42.5757 57.2045 42.5616C57.1464 42.5599 57.0684 42.4562 57.0427 42.3849C57.0145 42.3069 57.0344 42.2106 57.0344 42.1219C57.0344 39.7957 57.0294 37.4696 57.0427 35.1435C57.0444 34.8423 56.9614 34.7652 56.6636 34.7685C55.3081 34.7842 53.9517 34.776 52.5953 34.776C52.4784 34.776 52.3614 34.776 52.217 34.776V34.1646H63.525V34.7701H58.7326V42.5707L58.7317 42.5698Z" fill="#808592"/>
<path d="M84.8253 34.157H86.4612C86.4612 34.2839 86.4612 34.3976 86.4612 34.512C86.4612 36.8772 86.4654 39.2431 86.4554 41.6083C86.4546 41.877 86.5268 41.9575 86.7997 41.9567C89.1383 41.9467 91.4777 41.9509 93.8163 41.9509C93.9432 41.9509 94.0693 41.9509 94.222 41.9509V42.5449H84.8253V34.1578V34.157Z" fill="#808592"/>
<path d="M44.8479 34.1487H46.4681V42.5465H44.8479V34.1487Z" fill="#808592"/>
</svg>
