<svg width="16" height="16" viewBox="0 0 16 16" fill="none" xmlns="http://www.w3.org/2000/svg">
<path d="M10.2871 1.87325C10.2871 1.87325 10.1063 1.92491 9.80935 2.0153C9.75769 1.84743 9.68022 1.65373 9.57691 1.44713C9.24118 0.801481 8.73757 0.452832 8.14358 0.452832C8.10484 0.452832 8.0661 0.452832 8.01445 0.465745C8.00154 0.439919 7.97571 0.427006 7.9628 0.40118C7.70454 0.117096 7.3688 -0.0120337 6.9685 0.000879218C6.19373 0.0267051 5.41895 0.581961 4.79913 1.57626C4.36009 2.27356 4.02435 3.15163 3.93396 3.83602C3.04297 4.10719 2.42315 4.30089 2.41024 4.3138C1.95829 4.45584 1.94537 4.46875 1.89372 4.89488C1.85498 5.2177 0.666992 14.3084 0.666992 14.3084L10.4292 16V1.86034C10.3517 1.86034 10.313 1.87325 10.2871 1.87325ZM8.02736 2.57055C7.51084 2.72551 6.94268 2.90629 6.38742 3.07416C6.54237 2.46725 6.85229 1.86034 7.21385 1.46004C7.35589 1.318 7.54958 1.15013 7.7691 1.04683C7.98862 1.51169 8.04027 2.14443 8.02736 2.57055ZM6.9685 0.530309C7.14928 0.530309 7.30424 0.569048 7.43337 0.646526C7.22676 0.749829 7.02015 0.917697 6.82646 1.11139C6.33577 1.64082 5.96129 2.46725 5.80634 3.25494C5.34147 3.39698 4.87661 3.53902 4.45048 3.66815C4.73456 2.42851 5.78051 0.556135 6.9685 0.530309ZM5.4706 7.63242C5.52225 8.45885 7.70454 8.63963 7.83367 10.5895C7.92406 12.1261 7.02015 13.1721 5.71595 13.2495C4.14057 13.3528 3.2754 12.4231 3.2754 12.4231L3.61114 11.0027C3.61114 11.0027 4.47631 11.6613 5.1736 11.6096C5.62556 11.5838 5.79343 11.2093 5.78051 10.951C5.71595 9.86636 3.93396 9.93092 3.81775 8.14894C3.71444 6.65104 4.69583 5.14023 6.8652 4.99818C7.70454 4.94653 8.13067 5.15314 8.13067 5.15314L7.63997 7.0126C7.63997 7.0126 7.08472 6.75434 6.42616 6.80599C5.4706 6.87056 5.45769 7.47747 5.4706 7.63242ZM8.54388 2.4156C8.54388 2.02821 8.49223 1.47295 8.31145 1.00809C8.90544 1.1243 9.18953 1.78286 9.31866 2.18316C9.08622 2.24773 8.82796 2.32521 8.54388 2.4156Z" fill="#F5F7F9"/>
<path d="M10.7266 15.9743L14.7812 14.967C14.7812 14.967 13.038 3.17754 13.0251 3.10007C13.0122 3.02259 12.9476 2.97094 12.883 2.97094C12.8185 2.97094 11.6821 2.94511 11.6821 2.94511C11.6821 2.94511 10.9848 2.27364 10.7266 2.01538V15.9743Z" fill="#F5F7F9"/>
</svg>
