<svg width="20" height="21" viewBox="0 0 20 21" fill="none" xmlns="http://www.w3.org/2000/svg">
<path fill-rule="evenodd" clip-rule="evenodd" d="M8.33327 13.4786L12.6583 10.9786L8.33327 8.4786V13.4786ZM17.9666 6.9536C18.075 7.34526 18.15 7.87026 18.2 8.53693C18.2583 9.2036 18.2833 9.7786 18.2833 10.2786L18.3333 10.9786C18.3333 12.8036 18.2 14.1453 17.9666 15.0036C17.7583 15.7536 17.275 16.2369 16.525 16.4453C16.1333 16.5536 15.4166 16.6286 14.3166 16.6786C13.2333 16.7369 12.2416 16.7619 11.325 16.7619L9.99996 16.8119C6.50829 16.8119 4.33329 16.6786 3.47496 16.4453C2.72496 16.2369 2.24163 15.7536 2.03329 15.0036C1.92496 14.6119 1.84996 14.0869 1.79996 13.4203C1.74163 12.7536 1.71663 12.1786 1.71663 11.6786L1.66663 10.9786C1.66663 9.1536 1.79996 7.81193 2.03329 6.9536C2.24163 6.2036 2.72496 5.72026 3.47496 5.51193C3.86663 5.4036 4.58329 5.3286 5.68329 5.2786C6.76663 5.22026 7.75829 5.19526 8.67496 5.19526L9.99996 5.14526C13.4916 5.14526 15.6666 5.2786 16.525 5.51193C17.275 5.72026 17.7583 6.2036 17.9666 6.9536Z" fill="#647491"/>
</svg>
